# xmcd
#
# Track frame offsets: 
#        150
#        20835
#        23590
#        46748
#        61718
#        93433
#        109900
#        148823
#        173353
#
# Disc length: 2432 seconds
#
# Revision: 2
# Processed by: cddbd v1.5PL3 Copyright (c) Steve Scherf et al.
# Submitted via: ExactAudioCopy v0.95a5
#
DISCID=6a097e09
DTITLE=B. B. King - The Best Of B. B. King
DYEAR=1973
DGENRE=Blues
TTITLE0=Hummingbird
TTITLE1=Cook County Jail Introduction
TTITLE2=How Blue Can You Get
TTITLE3=Caldonia
TTITLE4=Sweet Sixteen
TTITLE5=Ain't Nobody Home
TTITLE6=Why I Sing The Blues
TTITLE7=The Thrill Is Gone
TTITLE8=Nobody Loves Me But My Mother
EXTD=
EXTT0=
EXTT1=
EXTT2=
EXTT3=
EXTT4=
EXTT5=
EXTT6=
EXTT7=
EXTT8=
PLAYORDER=
